<svg id="Group_2442" data-name="Group 2442" xmlns="http://www.w3.org/2000/svg" width="120" height="50.647" viewBox="0 0 120 50.647">
  <g id="Group_2441" data-name="Group 2441">
    <g id="Group_2440" data-name="Group 2440">
      <g id="Group_2438" data-name="Group 2438" transform="translate(0 25.043)">
        <g id="Group_2437" data-name="Group 2437">
          <path id="Path_722" data-name="Path 722" d="M93.945,185.772l-.031-1.024H92.82v6.77h1.093v-3.993c0-.913.312-1.836,1.529-1.836l.593.07v-1.143C94.965,184.616,94.395,184.738,93.945,185.772Z" transform="translate(-70.895 -166.05)" fill="#ffffff" fill-rule="evenodd"/>
          <rect id="Rectangle_942" data-name="Rectangle 942" width="1.236" height="1.179" transform="translate(18.95 15.793)" fill="#ffffff"/>
          <rect id="Rectangle_943" data-name="Rectangle 943" width="1.101" height="6.77" transform="translate(19.013 18.697)" fill="#ffffff"/>
          <path id="Path_723" data-name="Path 723" d="M27.687,190.914l-1.541-5.74H24.913l2.012,6.774h1.432l2.116-6.774H29.322Z" transform="translate(-19.028 -166.477)" fill="#ffffff" fill-rule="evenodd"/>
          <path id="Path_724" data-name="Path 724" d="M252.446,106.625l.861,1.229h1.043l-1.306-1.835h-1.2l-1.308,1.835h1.048Z" transform="translate(-191.358 -106.019)" fill="#ffffff" fill-rule="evenodd"/>
          <path id="Path_725" data-name="Path 725" d="M479.833,116.171h-1.564l-3.047,9.633h1.236l.723-2.3H480.9l.7,2.3h1.369Zm-2.351,6.267,1.516-5.13,1.572,5.13Z" transform="translate(-362.969 -113.773)" fill="#ffffff" fill-rule="evenodd"/>
          <path id="Path_726" data-name="Path 726" d="M452.152,116.171l-2.254,8.477-2.228-8.477h-1.339l2.789,9.633h1.469l2.813-9.633Z" transform="translate(-340.903 -113.773)" fill="#ffffff" fill-rule="evenodd"/>
          <rect id="Rectangle_944" data-name="Rectangle 944" width="1.231" height="9.637" transform="translate(102.922 2.398)" fill="#ffffff"/>
          <path id="Path_727" data-name="Path 727" d="M403.939,124.648l-2.232-8.475h-1.335l2.79,9.635h1.464l2.815-9.637h-1.258Z" transform="translate(-305.799 -113.773)" fill="#ffffff" fill-rule="evenodd"/>
          <path id="Path_728" data-name="Path 728" d="M357.626,116.181l-3.055,9.635h1.246l.723-2.294h3.716l.694,2.294h1.372l-3.13-9.635Zm-.782,6.274,1.5-5.14,1.579,5.14Z" transform="translate(-270.817 -113.781)" fill="#ffffff" fill-rule="evenodd"/>
          <rect id="Rectangle_945" data-name="Rectangle 945" width="1.229" height="9.635" transform="translate(81.222 2.401)" fill="#ffffff"/>
          <path id="Path_729" data-name="Path 729" d="M314.855,124.35c-.953,0-1.727-.282-1.727-2.641v-2.582c0-1.65.249-1.889.285-2a1.481,1.481,0,0,1,1.454-.741,1.577,1.577,0,0,1,1.076.409,2.193,2.193,0,0,1,.283,1.4h1.265c.124-1.872-.607-2.854-2.521-2.854-1.893,0-3.1.775-3.1,3.493v2.726c0,3.735,1.848,3.819,3.042,3.819.632,0,2.777,0,2.731-3.048h-1.274C316.357,124.209,315.228,124.35,314.855,124.35Z" transform="translate(-238.205 -113.14)" fill="#ffffff" fill-rule="evenodd"/>
          <path id="Path_730" data-name="Path 730" d="M280.991,124.433l-3.768-8.251h-1.742v9.635h1.1v-8.352l3.831,8.352h1.683v-9.635h-1.1Z" transform="translate(-210.409 -113.781)" fill="#ffffff" fill-rule="evenodd"/>
          <path id="Path_731" data-name="Path 731" d="M248.759,121.414h3.466v-1.07h-3.466l-.007-3.094H252.5v-1.069h-4.968v9.635h5.045v-1.067h-3.814Z" transform="translate(-189.059 -113.781)" fill="#ffffff" fill-rule="evenodd"/>
          <rect id="Rectangle_946" data-name="Rectangle 946" width="1.226" height="9.636" transform="translate(55.059 2.401)" fill="#ffffff"/>
          <path id="Path_732" data-name="Path 732" d="M204.082,124.35c-.938,0-1.713-.279-1.713-2.641v-2.578c0-1.653.232-1.892.266-2a1.524,1.524,0,0,1,1.462-.744,1.587,1.587,0,0,1,1.082.411,2.25,2.25,0,0,1,.283,1.4h1.265c.124-1.865-.609-2.854-2.518-2.854s-3.1.775-3.1,3.5v2.722c0,3.731,1.841,3.815,3.038,3.815.628,0,2.779,0,2.721-3.048h-1.262C205.594,124.216,204.46,124.35,204.082,124.35Z" transform="translate(-153.607 -113.14)" fill="#ffffff" fill-rule="evenodd"/>
          <path id="Path_733" data-name="Path 733" d="M158.5,115.352c-2.039,0-3.028,1.231-3.028,3.147v3.169c0,2.667.989,3.72,3.035,3.72s3.026-1.054,3.026-3.72V118.5C161.537,116.583,160.553,115.352,158.5,115.352Zm1.782,6.367c0,2.108-.617,2.639-1.775,2.639s-1.783-.531-1.783-2.639v-3.254c0-2.02,1.391-2.087,1.775-2.087s1.782.068,1.782,2.087Z" transform="translate(-118.751 -113.147)" fill="#ffffff" fill-rule="evenodd"/>
          <path id="Path_734" data-name="Path 734" d="M99.656,116.2H93.363v1.064h2.525v8.573h1.233v-8.573h2.534Z" transform="translate(-71.31 -113.796)" fill="#ffffff" fill-rule="evenodd"/>
          <path id="Path_735" data-name="Path 735" d="M65.8,124.449,62.017,116.2H60.279l0,9.637h1.1v-8.355l3.836,8.355h1.671V116.2H65.8Z" transform="translate(-46.04 -113.796)" fill="#ffffff" fill-rule="evenodd"/>
          <path id="Path_736" data-name="Path 736" d="M37.345,125.839v-1.07H33.526V121.43H37v-1.059H33.526v-3.1h3.741V116.2H32.3l.01,9.637Z" transform="translate(-24.667 -113.796)" fill="#ffffff" fill-rule="evenodd"/>
          <path id="Path_737" data-name="Path 737" d="M5.518,122.339c-.007,1.89-1.144,2.02-1.521,2.02-.946,0-1.72-.281-1.72-2.64v-2.574c0-1.654.242-1.9.283-2a1.506,1.506,0,0,1,1.459-.745A1.62,1.62,0,0,1,5.1,116.8a2.276,2.276,0,0,1,.276,1.4H6.647c.118-1.869-.624-2.856-2.527-2.856s-3.1.778-3.1,3.5v2.721c0,3.737,1.843,3.817,3.045,3.817.629,0,2.777,0,2.721-3.05Z" transform="translate(-0.782 -113.147)" fill="#ffffff" fill-rule="evenodd"/>
          <path id="Path_738" data-name="Path 738" d="M112.7,184.616c-2.341,0-2.566,1.635-2.566,3.619,0,2.991,1.135,3.42,2.566,3.42s2.583-.429,2.583-3.42C115.284,186.251,115.052,184.616,112.7,184.616Zm0,6.138c-1.13,0-1.418-.789-1.418-2.988,0-1.85.578-2.253,1.418-2.253.856,0,1.432.4,1.432,2.253C114.133,189.965,113.848,190.754,112.7,190.754Z" transform="translate(-84.12 -166.05)" fill="#ffffff" fill-rule="evenodd"/>
          <path id="Path_739" data-name="Path 739" d="M128.561,120.813a2.117,2.117,0,0,0,1.756-2.227,2.173,2.173,0,0,0-2.31-2.4h-3.321l0,9.642,1.23-.006v-4.429h1.439a1.273,1.273,0,0,1,1.454,1.229,11.213,11.213,0,0,0,.372,3.2h1.282a14.988,14.988,0,0,1-.334-2.514C130.063,121.362,129.665,120.988,128.561,120.813Zm-.8-.487h-1.838V117.25h1.85a1.312,1.312,0,0,1,1.3,1.466C129.068,119.558,128.635,120.326,127.758,120.326Z" transform="translate(-95.234 -113.781)" fill="#ffffff" fill-rule="evenodd"/>
          <path id="Path_740" data-name="Path 740" d="M4.649,186.651c0-1.134-.45-2.035-2.191-2.035-1.437,0-2.247.525-2.293,2.035H1.359a1,1,0,0,1,1.052-1.2c1.18,0,1.17.985,1.144,1.877-1.543-.04-3.555.06-3.555,2.106,0,1.3.416,2.225,1.852,2.225a1.661,1.661,0,0,0,1.7-1.11l.026.977h1.2a12,12,0,0,1-.133-1.607ZM2.16,190.757c-.735,0-1.059-.589-1.059-1.247,0-1.434,1.405-1.341,2.455-1.352C3.659,190.341,2.827,190.757,2.16,190.757Z" transform="translate(0 -166.05)" fill="#ffffff" fill-rule="evenodd"/>
          <path id="Path_741" data-name="Path 741" d="M54.936,184.616c-2.352,0-2.572,1.635-2.572,3.619,0,2.991,1.135,3.42,2.572,3.42a2.059,2.059,0,0,0,2.355-2.183h-1.2a1.212,1.212,0,0,1-1.178,1.283c-.861,0-1.369-.371-1.369-2.261h3.807v-.575C57.349,185.676,56.863,184.616,54.936,184.616Zm-1.394,3.048c.01-1.883.592-2.217,1.285-2.217.8,0,1.354.242,1.354,2.217Z" transform="translate(-39.995 -166.05)" fill="#ffffff" fill-rule="evenodd"/>
        </g>
      </g>
      <g id="Group_2439" data-name="Group 2439" transform="translate(0.505)">
        <rect id="Rectangle_947" data-name="Rectangle 947" width="5.984" height="2.485" transform="translate(4.288 1.984)" fill="#ffffff"/>
        <rect id="Rectangle_948" data-name="Rectangle 948" width="5.984" height="2.498" transform="translate(4.288 10.251)" fill="#ffffff"/>
        <path id="Path_742" data-name="Path 742" d="M56.284,8.386,52.808,20.522l-2.249,7.824H47.7l6.1-19.96Z" transform="translate(-36.942 -6.405)" fill="#ffffff" fill-rule="evenodd"/>
        <path id="Path_743" data-name="Path 743" d="M76.3,16.194,81.821,34.3H78.877l-1.572-5.388H72.648l.7-2.432h3.2l-1.577-5.672Z" transform="translate(-55.993 -12.369)" fill="#ffffff" fill-rule="evenodd"/>
        <path id="Path_744" data-name="Path 744" d="M247.59,8.386h2.856V28.341h-2.852Z" transform="translate(-189.612 -6.405)" fill="#ffffff" fill-rule="evenodd"/>
        <path id="Path_745" data-name="Path 745" d="M140.482,25.925c1.961,0,3.125-.276,3.85-.82a3.047,3.047,0,0,0,1.1-2.621,2.967,2.967,0,0,0-1.172-2.553,6.843,6.843,0,0,0-3.788-.917l.007-2.308a5.465,5.465,0,0,0,3.418-.781,2.714,2.714,0,0,0,1.041-2.286,2.425,2.425,0,0,0-1.078-2.193,6.3,6.3,0,0,0-3.388-.7l.007-2.362A9.717,9.717,0,0,1,146,9.647a4.275,4.275,0,0,1,1.831,3.778,4.58,4.58,0,0,1-.769,2.7,5.148,5.148,0,0,1-2.353,1.734,5.649,5.649,0,0,1,2.724,1.92,5.072,5.072,0,0,1,.926,3.078,4.785,4.785,0,0,1-1.874,4.111c-1.26.915-3.5,1.369-6,1.369Z" transform="translate(-107.799 -6.405)" fill="#ffffff" fill-rule="evenodd"/>
        <path id="Path_746" data-name="Path 746" d="M125.272,19.045v9.3h-2.839V8.386h2.839V19.045Z" transform="translate(-94.018 -6.405)" fill="#ffffff" fill-rule="evenodd"/>
        <path id="Path_747" data-name="Path 747" d="M341.992,8.355,338.509,20.5l-2.24,7.822h-2.864l6.1-19.963Z" transform="translate(-255.157 -6.381)" fill="#ffffff" fill-rule="evenodd"/>
        <path id="Path_748" data-name="Path 748" d="M362.046,16.173l5.531,18.116h-2.944L363.059,28.9H358.41l.687-2.431h3.21L360.732,20.8Z" transform="translate(-274.255 -12.352)" fill="#ffffff" fill-rule="evenodd"/>
        <path id="Path_749" data-name="Path 749" d="M277.748,27.96a5.829,5.829,0,0,1-4.579-2.6q-1.81-2.638-1.814-7.694c0-3.371.6-5.926,1.8-7.669a5.854,5.854,0,0,1,4.591-2.605l0,2.375a3.5,3.5,0,0,0-2.526,1.964,12.8,12.8,0,0,0-1.092,5.935,12.756,12.756,0,0,0,1.092,5.936,3.509,3.509,0,0,0,2.526,1.949Z" transform="translate(-207.763 -5.642)" fill="#ffffff" fill-rule="evenodd"/>
        <path id="Path_750" data-name="Path 750" d="M310.284,66.192a6.971,6.971,0,0,1-1.038,4.078,6.271,6.271,0,0,1-4.736,2.6V70.449a3.914,3.914,0,0,0,2.692-1.925,4.721,4.721,0,0,0,.535-2.332Z" transform="translate(-233.087 -50.557)" fill="#ffffff" fill-rule="evenodd"/>
        <path id="Path_751" data-name="Path 751" d="M304.469,7.418A6.25,6.25,0,0,1,309.215,10a6.955,6.955,0,0,1,1.03,4.034H307.7a4.921,4.921,0,0,0-.532-2.293,3.917,3.917,0,0,0-2.692-1.947Z" transform="translate(-233.055 -5.666)" fill="#ffffff" fill-rule="evenodd"/>
        <path id="Path_752" data-name="Path 752" d="M205.075,20.455l.024-2.473a5.935,5.935,0,0,0,2.789-.752,3.865,3.865,0,0,0,1.163-3.175,2.8,2.8,0,0,0-1.087-2.486A4.872,4.872,0,0,0,205.1,10.8V8.386a7.158,7.158,0,0,1,4.763,1.361A4.974,4.974,0,0,1,211.876,14a6.232,6.232,0,0,1-1.139,3.953,5.571,5.571,0,0,1-2.936,1.842l4.576,8.548H209.23Z" transform="translate(-157.139 -6.405)" fill="#ffffff" fill-rule="evenodd"/>
        <path id="Path_753" data-name="Path 753" d="M189.95,20.455v7.886h-2.827l-.007-19.955h2.827l.007,2.417v9.652Z" transform="translate(-143.422 -6.405)" fill="#ffffff" fill-rule="evenodd"/>
        <path id="Path_754" data-name="Path 754" d="M94.143,0,92.617,5.327,91.392,1.963,91.947,0Z" transform="translate(-70.309)" fill="#ffffff" fill-rule="evenodd"/>
        <path id="Path_755" data-name="Path 755" d="M2.14,8.4H5V28.358H2.14Z" transform="translate(-2.14 -6.417)" fill="#ffffff" fill-rule="evenodd"/>
      </g>
    </g>
  </g>
</svg>
