<svg id="visual" viewBox="0 0 960 540" width="960" height="540" xmlns="http://www.w3.org/2000/svg" xmlns:xlink="http://www.w3.org/1999/xlink" version="1.1"><rect x="0" y="0" width="960" height="540" fill="#0066ff"></rect><path d="M477 540L501.5 522C526 504 575 468 582.7 432C590.3 396 556.7 360 530.5 324C504.3 288 485.7 252 484.2 216C482.7 180 498.3 144 506.5 108C514.7 72 515.3 36 515.7 18L516 0L960 0L960 18C960 36 960 72 960 108C960 144 960 180 960 216C960 252 960 288 960 324C960 360 960 396 960 432C960 468 960 504 960 522L960 540Z" fill="#0055d5"></path><path d="M721 540L705 522C689 504 657 468 651.3 432C645.7 396 666.3 360 663.2 324C660 288 633 252 629.5 216C626 180 646 144 661.8 108C677.7 72 689.3 36 695.2 18L701 0L960 0L960 18C960 36 960 72 960 108C960 144 960 180 960 216C960 252 960 288 960 324C960 360 960 396 960 432C960 468 960 504 960 522L960 540Z" fill="#007cea"></path><path d="M665 540L683.7 522C702.3 504 739.7 468 751.5 432C763.3 396 749.7 360 746 324C742.3 288 748.7 252 744.5 216C740.3 180 725.7 144 717.3 108C709 72 707 36 706 18L705 0L960 0L960 18C960 36 960 72 960 108C960 144 960 180 960 216C960 252 960 288 960 324C960 360 960 396 960 432C960 468 960 504 960 522L960 540Z" fill="#2ba1f7"></path><path d="M798 540L807.7 522C817.3 504 836.7 468 838.2 432C839.7 396 823.3 360 818.7 324C814 288 821 252 831.5 216C842 180 856 144 860.3 108C864.7 72 859.3 36 856.7 18L854 0L960 0L960 18C960 36 960 72 960 108C960 144 960 180 960 216C960 252 960 288 960 324C960 360 960 396 960 432C960 468 960 504 960 522L960 540Z" fill="#66c3ff"></path></svg>