<svg id="visual" viewBox="0 0 960 540" width="960" height="540" xmlns="http://www.w3.org/2000/svg" xmlns:xlink="http://www.w3.org/1999/xlink" version="1.1"><rect x="0" y="0" width="960" height="540" fill="#0066ff"></rect><path d="M494 540L504.5 522C515 504 536 468 536 432C536 396 515 360 524.7 324C534.3 288 574.7 252 591.8 216C609 180 603 144 594.2 108C585.3 72 573.7 36 567.8 18L562 0L960 0L960 18C960 36 960 72 960 108C960 144 960 180 960 216C960 252 960 288 960 324C960 360 960 396 960 432C960 468 960 504 960 522L960 540Z" fill="#0055d5"></path><path d="M647 540L632.5 522C618 504 589 468 599.3 432C609.7 396 659.3 360 676.2 324C693 288 677 252 674.3 216C671.7 180 682.3 144 674.8 108C667.3 72 641.7 36 628.8 18L616 0L960 0L960 18C960 36 960 72 960 108C960 144 960 180 960 216C960 252 960 288 960 324C960 360 960 396 960 432C960 468 960 504 960 522L960 540Z" fill="#007cea"></path><path d="M668 540L669.5 522C671 504 674 468 695.3 432C716.7 396 756.3 360 769.7 324C783 288 770 252 754.7 216C739.3 180 721.7 144 726.3 108C731 72 758 36 771.5 18L785 0L960 0L960 18C960 36 960 72 960 108C960 144 960 180 960 216C960 252 960 288 960 324C960 360 960 396 960 432C960 468 960 504 960 522L960 540Z" fill="#2ba1f7"></path><path d="M825 540L827.8 522C830.7 504 836.3 468 836.2 432C836 396 830 360 833.7 324C837.3 288 850.7 252 855.8 216C861 180 858 144 843.7 108C829.3 72 803.7 36 790.8 18L778 0L960 0L960 18C960 36 960 72 960 108C960 144 960 180 960 216C960 252 960 288 960 324C960 360 960 396 960 432C960 468 960 504 960 522L960 540Z" fill="#66c3ff"></path></svg>