<svg id="visual" viewBox="0 0 600 900" width="600" height="900" xmlns="http://www.w3.org/2000/svg" xmlns:xlink="http://www.w3.org/1999/xlink" version="1.1"><rect x="0" y="0" width="600" height="900" fill="#0066ff"></rect><path d="M299 900L314.2 870C329.3 840 359.7 780 364.3 720C369 660 348 600 331.7 540C315.3 480 303.7 420 302.8 360C302 300 312 240 317.2 180C322.3 120 322.7 60 322.8 30L323 0L600 0L600 30C600 60 600 120 600 180C600 240 600 300 600 360C600 420 600 480 600 540C600 600 600 660 600 720C600 780 600 840 600 870L600 900Z" fill="#0055d5"></path><path d="M451 900L441 870C431 840 411 780 407.5 720C404 660 417 600 415 540C413 480 396 420 393.8 360C391.7 300 404.3 240 414.2 180C424 120 431 60 434.5 30L438 0L600 0L600 30C600 60 600 120 600 180C600 240 600 300 600 360C600 420 600 480 600 540C600 600 600 660 600 720C600 780 600 840 600 870L600 900Z" fill="#007cea"></path><path d="M416 900L427.7 870C439.3 840 462.7 780 470.2 720C477.7 660 469.3 600 467 540C464.7 480 468.3 420 465.7 360C463 300 454 240 448.8 180C443.7 120 442.3 60 441.7 30L441 0L600 0L600 30C600 60 600 120 600 180C600 240 600 300 600 360C600 420 600 480 600 540C600 600 600 660 600 720C600 780 600 840 600 870L600 900Z" fill="#2ba1f7"></path><path d="M499 900L505 870C511 840 523 780 524 720C525 660 515 600 512.2 540C509.3 480 513.7 420 520.2 360C526.7 300 535.3 240 538 180C540.7 120 537.3 60 535.7 30L534 0L600 0L600 30C600 60 600 120 600 180C600 240 600 300 600 360C600 420 600 480 600 540C600 600 600 660 600 720C600 780 600 840 600 870L600 900Z" fill="#66c3ff"></path></svg>