<?xml version="1.0" standalone="no"?>
<svg xmlns:xlink="http://www.w3.org/1999/xlink" id="wave" style="transform:rotate(0deg); transition: 0.3s" viewBox="0 0 1440 490" version="1.1" xmlns="http://www.w3.org/2000/svg"><defs>
<linearGradient id="sw-gradient-0" x1="0" x2="0" y1="1" y2="0"><stop stop-color="#ffffff" offset="0%"/><stop stop-color="#ffffff" offset="100%"/></linearGradient></defs><path style="transform:translate(0, 0px); opacity:1" fill="url(#sw-gradient-0)" d="M0,245L120,212.3C240,180,480,114,720,122.5C960,131,1200,212,1440,277.7C1680,343,1920,392,2160,400.2C2400,408,2640,376,2880,343C3120,310,3360,278,3600,294C3840,310,4080,376,4320,334.8C4560,294,4800,147,5040,81.7C5280,16,5520,33,5760,106.2C6000,180,6240,310,6480,318.5C6720,327,6960,212,7200,163.3C7440,114,7680,131,7920,138.8C8160,147,8400,147,8640,130.7C8880,114,9120,82,9360,122.5C9600,163,9840,278,10080,277.7C10320,278,10560,163,10800,163.3C11040,163,11280,278,11520,326.7C11760,376,12000,359,12240,302.2C12480,245,12720,147,12960,130.7C13200,114,13440,180,13680,196C13920,212,14160,180,14400,179.7C14640,180,14880,212,15120,245C15360,278,15600,310,15840,285.8C16080,261,16320,180,16560,155.2C16800,131,17040,163,17160,179.7L17280,196L17280,490L17160,490C17040,490,16800,490,16560,490C16320,490,16080,490,15840,490C15600,490,15360,490,15120,490C14880,490,14640,490,14400,490C14160,490,13920,490,13680,490C13440,490,13200,490,12960,490C12720,490,12480,490,12240,490C12000,490,11760,490,11520,490C11280,490,11040,490,10800,490C10560,490,10320,490,10080,490C9840,490,9600,490,9360,490C9120,490,8880,490,8640,490C8400,490,8160,490,7920,490C7680,490,7440,490,7200,490C6960,490,6720,490,6480,490C6240,490,6000,490,5760,490C5520,490,5280,490,5040,490C4800,490,4560,490,4320,490C4080,490,3840,490,3600,490C3360,490,3120,490,2880,490C2640,490,2400,490,2160,490C1920,490,1680,490,1440,490C1200,490,960,490,720,490C480,490,240,490,120,490L0,490Z"/></svg>